{"title":"If I Stay 2014 HDRip HC x264 6CH AAC Pimp4003","uid":11395981,"size":1314488378,"categoryP":"video","categoryS":"hd___movies","magnet":"?xt=urn:btih:c9ebe6b26c4b60f01941636d6a508baec9413c00&amp;dn=If+I+Stay+2014+HDRip+HC+x264+6CH+AAC+Pimp4003&amp;tr=udp%3A%2F%2Ftracker.openbittorrent.com%3A80&amp;tr=udp%3A%2F%2Fopen.demonii.com%3A1337&amp;tr=udp%3A%2F%2Ftracker.coppersurfer.tk%3A6969&amp;tr=udp%3A%2F%2Fexodus.desync.com%3A6969","seeders":4,"leechers":0,"uploader":"shawnmurthy","files":-1,"time":1415372124,"description":"If I Stay 2014 HDRip HC x264 6CH AAC Pimp4003\n\nENJOY\n\nPIMP4003\n\nVideo\nID                                       : 1\nFormat                                   : AVC\nFormat/Info                              : Advanced Video Codec\nFormat profile                           : &lt;a class=&quot;__cf_email__&quot; href=&quot;/cdn-cgi/l/email-protection&quot; data-cfemail=&quot;91d9f8f6f9d1dda5bfa0&quot;&gt;[email&amp;#160;protected]&lt;/a&gt;&lt;script cf-hash='f9e31' type=&quot;text/javascript&quot;&gt;\n/* &lt;![CDATA[ */!function(){try{var t=&quot;currentScript&quot;in document?document.currentScript:function(){for(var t=document.getElementsByTagName(&quot;script&quot;),e=t.length;e--;)if(t[e].getAttribute(&quot;cf-hash&quot;))return t[e]}();if(t&amp;&amp;t.previousSibling){var e,r,n,i,c=t.previousSibling,a=c.getAttribute(&quot;data-cfemail&quot;);if(a){for(e=&quot;&quot;,r=parseInt(a.substr(0,2),16),n=2;a.length-n;n+=2)i=parseInt(a.substr(n,2),16)^r,e+=String.fromCharCode(i);e=document.createTextNode(e),c.parentNode.replaceChild(e,c)}}}catch(u){}}();/* ]]&gt; */&lt;/script&gt;\nFormat settings, CABAC                   : Yes\nFormat settings, ReFrames                : 2 frames\nCodec ID                                 : V_MPEG4/ISO/AVC\nDuration                                 : 1h 46mn\nBit rate                                 : 1 193 Kbps\nWidth                                    : 720 pixels\nHeight                                   : 404 pixels\nDisplay aspect ratio                     : 16:9\nFrame rate mode                          : Constant\nFrame rate                               : 23.976 fps\nColor space                              : YUV\nChroma subsampling                       : 4:2:0\nBit depth                                : 8 bits\nScan type                                : Progressive\nBits/(Pixel*Frame)                       : 0.171\nStream size                              : 887 MiB (71%)\nWriting library                          : x264 core 142\nEncoding settings                        : cabac=1 / ref=1 / deblock=1:-1:-1 / analyse=0x3:0 / me=hex / subme=5 / psy=0 / mixed_ref=0 / me_range=16 / chroma_me=1 / trellis=0 / 8x8dct=1 / cqm=0 / deadzone=21,11 / fast_pskip=1 / chroma_qp_offset=0 / threads=4 / lookahead_threads=1 / sliced_threads=0 / nr=0 / decimate=1 / interlaced=0 / bluray_compat=0 / constrained_intra=0 / bframes=2 / b_pyramid=0 / b_adapt=1 / b_bias=0 / direct=1 / weightb=1 / open_gop=0 / weightp=0 / keyint=24 / keyint_min=13 / scenecut=40 / intra_refresh=0 / rc=2pass / mbtree=0 / bitrate=1193 / ratetol=1.0 / qcomp=0.60 / qpmin=0 / qpmax=69 / qpstep=4 / cplxblur=20.0 / qblur=0.5 / ip_ratio=1.40 / pb_ratio=1.30 / aq=1:1.00\nDefault                                  : Yes\nForced                                   : No\nColor primaries                          : BT.601 NTSC\nTransfer characteristics                 : BT.709\nMatrix coefficients                      : BT.601\n\nAudio\nID                                       : 2\nFormat                                   : AC-3\nFormat/Info                              : Audio Coding 3\nMode extension                           : CM (complete main)\nFormat settings, Endianness              : Big\nCodec ID                                 : A_AC3\nDuration                                 : 1h 46mn\nBit rate mode                            : Constant\nBit rate                                 : 448 Kbps\nChannel(s)                               : 6 channels\nChannel positions                        : Front: L C R, Side: L R, LFE\nSampling rate                            : 48.0 KHz\nBit depth                                : 16 bits\nCompression mode                         : Lossy\nStream size                              : 342 MiB (27%)\nLanguage                                 : English\nDefault                                  : Yes\nForced                                   : No\n\nMenu\n00:00:00.000                             : en:(01)00:00:00:000\n00:03:20.166                             : en:(02)00:03:20:166\n00:07:23.532                             : en:(03)00:07:23:532\n00:11:31.032                             : en:(04)00:11:31:032\n00:14:42.832                             : en:(05)00:14:42:832\n00:19:11.332                             : en:(06)00:19:11:332\n00:23:18.198                             : en:(07)00:23:18:198\n00:25:17.864                             : en:(08)00:25:17:864\n00:27:26.797                             : en:(09)00:27:26:797\n00:30:44.163                             : en:(10)00:30:44:163\n00:32:09.663                             : en:(11)00:32:09:663\n00:34:36.363                             : en:(12)00:34:36:363\n00:37:19.663                             : en:(13)00:37:19:663\n00:40:38.863                             : en:(14)00:40:38:863\n00:43:59.696                             : en:(15)00:43:59:696\n00:46:56.196                             : en:(16)00:46:56:196\n00:49:04.862                             : en:(17)00:49:04:862\n00:52:03.195                             : en:(18)00:52:03:195\n00:55:38.861                             : en:(19)00:55:38:861\n00:58:58.027                             : en:(20)00:58:58:027\n01:00:38.693                             : en:(21)01:00:38:693\n01:05:35.359                             : en:(22)01:05:35:359\n01:10:05.825                             : en:(23)01:10:05:825\n01:13:44.491                             : en:(24)01:13:44:491\n01:16:13.824                             : en:(25)01:16:13:824\n01:18:49.990                             : en:(26)01:18:49:990\n01:24:00.356                             : en:(27)01:24:00:356\n01:27:39.189                             : en:(28)01:27:39:189\n01:29:44.855                             : en:(29)01:29:44:855\n01:33:33.455                             : en:(30)01:33:33:455\n01:38:10.521                             : en:(31)01:38:10:521\n01:40:19.321                             : en:(32)01:40:19:321\n01:46:33.821                             : en:(33)01:46:33:821","torrent":{"xt":"urn:btih:c9ebe6b26c4b60f01941636d6a508baec9413c00","amp;dn":"If+I+Stay+2014+HDRip+HC+x264+6CH+AAC+Pimp4003","amp;tr":["udp%3A%2F%2Ftracker.openbittorrent.com%3A80","udp%3A%2F%2Fopen.demonii.com%3A1337","udp%3A%2F%2Ftracker.coppersurfer.tk%3A6969","udp%3A%2F%2Fexodus.desync.com%3A6969"],"infoHash":"c9ebe6b26c4b60f01941636d6a508baec9413c00","infoHashBuffer":{"type":"Buffer","data":[201,235,230,178,108,75,96,240,25,65,99,109,106,80,139,174,201,65,60,0]},"announce":[],"urlList":[]}}